<?xml version="1.0" encoding="iso-8859-1"?>
<!-- Generator: Adobe Illustrator 19.0.0, SVG Export Plug-In . SVG Version: 6.00 Build 0)  -->
<svg version="1.1" id="Layer_1" xmlns="http://www.w3.org/2000/svg" xmlns:xlink="http://www.w3.org/1999/xlink" x="0px" y="0px"
	 viewBox="0 0 354 354" style="enable-background:new 0 0 354 354;" xml:space="preserve">
<g id="XMLID_105_">
	<g>
		<g>
			<polygon points="109.929,69.932 87,92.861 64.071,69.932 49.929,84.075 72.857,107.002 49.929,129.932 64.071,144.075 
				87,121.146 109.929,144.075 124.071,129.932 101.143,107.002 124.071,84.075 			"/>
			<polygon points="244.071,284.075 267,261.146 289.929,284.075 304.071,269.932 281.143,247.003 304.071,224.075 289.929,209.932 
				267,232.86 244.071,209.932 229.929,224.075 252.857,247.003 229.929,269.932 			"/>
			<path d="M229.514,52.659L125.024,6.684L0,31.914v294.214l122.805-24.782l106.204,45.97L354,322.091V27.914L229.514,52.659z
				 M334,305.724l-102.802,20.746L124.994,280.5L20,301.688V48.281l102.769-20.739l104.46,45.963L334,52.281V305.724z"/>
		</g>
	</g>
</g>
<g>
</g>
<g>
</g>
<g>
</g>
<g>
</g>
<g>
</g>
<g>
</g>
<g>
</g>
<g>
</g>
<g>
</g>
<g>
</g>
<g>
</g>
<g>
</g>
<g>
</g>
<g>
</g>
<g>
</g>
</svg>
