<?xml version="1.0" encoding="iso-8859-1"?>
<!-- Generator: Adobe Illustrator 19.0.0, SVG Export Plug-In . SVG Version: 6.00 Build 0)  -->
<svg version="1.1" id="Capa_1" xmlns="http://www.w3.org/2000/svg" xmlns:xlink="http://www.w3.org/1999/xlink" x="0px" y="0px"
	 viewBox="0 0 336.583 336.583" style="enable-background:new 0 0 336.583 336.583;" xml:space="preserve">
<g>
	<g>
		<g>
			<path d="M171.709,0.041C91.076-1.847,24.179,61.989,22.292,142.623c-0.004,1.778,0.635,3.497,1.8,4.84l139.56,188.36h1.08
				l0.56,0.4l0.6,0.36h1.76h0.48h3.16h0.28h0.36h0.28l0.64-0.44l1-0.84c0.248-0.276,0.476-0.57,0.68-0.88l137.96-186.96
				c1.165-1.343,1.804-3.062,1.8-4.84C312.466,64.646,249.687,1.866,171.709,0.041z M37.371,140.423
				c1.507-13.331,12.482-23.587,25.884-24.189c15.051-0.676,27.8,10.978,28.476,26.029c0,0.12,0,0.36,0,0.36
				c0,1.004,0.204,1.997,0.6,2.92l51.04,138.6L37.371,140.423z M160.972,142.583c-0.019,0.306-0.019,0.614,0,0.92v145.56
				l-54.44-147.6c1.079-13.66,12.123-24.4,25.808-25.097c15.047-0.766,27.866,10.81,28.632,25.857
				C160.972,142.343,160.972,142.583,160.972,142.583z M168.332,119.703c-1.555-2.264-3.328-4.371-5.292-6.291
				c-1.732-1.691-3.608-3.229-5.605-4.596c-19.14-13.105-45.279-8.212-58.383,10.927c-12.834-18.714-38.203-23.866-57.32-11.64
				c12.239-44.804,47.242-79.807,92.046-92.046c69.941-19.106,142.128,22.105,161.234,92.046c-6.764-4.349-14.639-6.654-22.68-6.64
				c-13.857,0.005-26.824,6.826-34.68,18.24c-2.924-4.26-6.608-7.944-10.868-10.868C207.641,95.695,181.471,100.561,168.332,119.703
				z M175.732,142.743c0.355-14.032,11.301-25.505,25.301-26.518c15.027-1.088,28.091,10.211,29.179,25.238l-54.48,147.6V142.743z
				 M193.292,284.143l51.32-139c0.326-0.896,0.475-1.847,0.44-2.8c0.574-13.417,10.827-24.42,24.169-25.939
				c14.97-1.704,28.486,9.05,30.191,24.019L193.292,284.143z"/>
			<path d="M163.012,113.383c0.01,0.009,0.019,0.02,0.028,0.029c0.004,0.004,0.008,0.007,0.012,0.011L163.012,113.383z"/>
		</g>
	</g>
</g>
<g>
</g>
<g>
</g>
<g>
</g>
<g>
</g>
<g>
</g>
<g>
</g>
<g>
</g>
<g>
</g>
<g>
</g>
<g>
</g>
<g>
</g>
<g>
</g>
<g>
</g>
<g>
</g>
<g>
</g>
</svg>
