<?xml version="1.0" encoding="utf-8"?>
<!-- Generator: Adobe Illustrator 23.0.5, SVG Export Plug-In . SVG Version: 6.00 Build 0)  -->
<svg version="1.1" id="Слой_1" xmlns="http://www.w3.org/2000/svg" xmlns:xlink="http://www.w3.org/1999/xlink" x="0px" y="0px"
	 viewBox="0 0 512 512" style="enable-background:new 0 0 512 512;" xml:space="preserve">
<g id="outline">
	<path d="M24,304c-4.4,0-8,3.6-8,8v64c0,4.4,3.6,8,8,8h16v8c0,22.1,17.9,40,40,40h352c22.1,0,40-17.9,40-40v-8h16
		c0.5,0,1.1-0.1,1.6-0.2c4.3-0.9,7.1-5.1,6.2-9.4l-8-40c-4.8-18-21.2-30.5-39.8-30.4h-80v-40l0,0c0-4.4-3.6-8-8-8h-40v-28.2
		l170.8-60.3c0.2-0.1,0.3-0.1,0.5-0.2c4-1.8,5.9-6.5,4.1-10.6l-8.8-19.7l4.1-1.5c3.9-1.4,6.1-5.5,5.1-9.5l-8-32
		c-0.1-0.2-0.1-0.5-0.2-0.7c-1.5-4.2-6-6.4-10.2-4.9l-183.7,63.9l-8.8,2.3l-5.1-20.6c-0.5-2.1-1.9-3.9-3.7-5
		c-1.8-1.1-4.1-1.4-6.1-0.8l-120,32c-4.2,1.1-6.8,5.4-5.7,9.7l5.1,20.4l-7.4,1.9c-1.4,0.4-2.6,1.1-3.6,2.1l-32,32
		c-2,2-2.8,4.9-2.1,7.6l5.5,22.1H88c-4.4,0-8,3.6-8,8v40H24L24,304z M269.4,158.7l-104.6,27.5l-3.1-12.5l104.5-27.9L269.4,158.7z
		 M337.5,189.1l133.8-46.8l5.9,13.2l-135.6,50L337.5,189.1z M329.4,175l-16.6-12.4l161.6-56.2l4.1,16.5L329.4,175z M309,213.8
		l-5.4-16.3c-1.1-3.3-4.1-5.5-7.6-5.5h-24c-0.7,0-1.3,0.1-1.9,0.2l-64,16l3.9,15.5l63-15.8h17.2l3.1,9.3l-167.5,37.2l-5-20
		l27.3-27.3l146.2-38.5l26.6,20l5.3,21.3L309,213.8z M304,231.3V256H192.9L304,231.3z M352,304H96v-32h256V304z M160,320v16h-32v-16
		H160z M208,320v16h-32v-16H208z M56,384h8.7c1.6,16.8,15,30.2,31.8,31.8c19.5,1.9,36.8-12.3,38.7-31.8h1.5
		c3.2,15.7,15.5,28,31.2,31.2c21.6,4.4,42.8-9.6,47.2-31.2h1.6c3.2,15.7,15.5,28,31.2,31.2c21.6,4.4,42.8-9.6,47.2-31.2h1.6
		c3.2,15.7,15.5,28,31.2,31.2c21.6,4.4,42.8-9.6,47.2-31.2h1.5c2.5,17.8,17.3,31.2,35.3,32c17.9-0.8,32.8-14.2,35.3-32h8.7v8
		c0,13.3-10.7,24-24,24H80c-13.3,0-24-10.7-24-24L56,384z M412,400c-9.1-0.6-16.8-7.1-18.9-16h37.7C428.8,392.9,421.1,399.4,412,400
		z M344,398.6c-12.5,4.4-26.2-2.1-30.6-14.6h45.3C356.2,390.8,350.8,396.2,344,398.6z M264,398.6c-12.5,4.4-26.2-2.1-30.6-14.6h45.3
		C276.2,390.8,270.8,396.2,264,398.6z M184,398.6c-12.5,4.4-26.2-2.1-30.6-14.6h45.3C196.2,390.8,190.8,396.2,184,398.6z
		 M103.1,399.7c-10.4,1.7-20.3-5.3-22-15.7h37.7C117.5,392.1,111.2,398.4,103.1,399.7z M32,320h16v32h16v-32h16v32h16v-32h16v24
		c0,4.4,3.6,8,8,8h96c4.4,0,8-3.6,8-8v-24h224c11.2-0.2,21.1,7.2,24.2,17.9l6,30.1H32V320z"/>
	<path d="M456,352h-16v-16h16V352z"/>
	<path d="M424,352h-16v-16h16V352z"/>
	<path d="M392,352h-16v-16h16V352z"/>
</g>
</svg>
