<svg xmlns="http://www.w3.org/2000/svg" xmlns:xlink="http://www.w3.org/1999/xlink"><defs><symbol viewBox="0 0 10 6" id="ic-arrow-down"><path data-name="arrow up" class="cls-1" d="M10 1.326L8.582 0 5 3.348 1.419 0 0 1.326 5 6z" /></symbol><symbol viewBox="0 0 26 40" id="ic-arrow-left"><path data-name="arrow right" d="M20.254 40L26 34.327 11.492 20 26 5.674 20.254 0 0 20z" fill-rule="evenodd" /></symbol><symbol viewBox="0 0 26 40" id="ic-arrow-right"><path data-name="arrow right" d="M5.746 0L0 5.673 14.508 20 0 34.326 5.746 40 26 20z" fill-rule="evenodd" /></symbol><symbol viewBox="0 0 354 354" id="ic-map"><path d="M109.929 69.932L87 92.861 64.071 69.932 49.929 84.075l22.928 22.927-22.928 22.93 14.142 14.143L87 121.146l22.929 22.929 14.142-14.143-22.928-22.93 22.928-22.927zM244.071 284.075L267 261.146l22.929 22.929 14.142-14.143-22.928-22.929 22.928-22.928-14.142-14.143L267 232.86l-22.929-22.928-14.142 14.143 22.928 22.928-22.928 22.929z" /><path d="M229.514 52.659L125.024 6.684 0 31.914v294.214l122.805-24.782 106.204 45.97L354 322.091V27.914L229.514 52.659zM334 305.724L231.198 326.47 124.994 280.5 20 301.688V48.281l102.769-20.739 104.46 45.963L334 52.281v253.443z" /></symbol><symbol viewBox="0 0 336.583 336.583" id="ic-parachute"><path d="M171.709.041C91.076-1.847 24.179 61.989 22.292 142.623a7.36 7.36 0 0 0 1.8 4.84l139.56 188.36h1.08l.56.4.6.36H172.212l.64-.44 1-.84c.248-.276.476-.57.68-.88l137.96-186.96a7.36 7.36 0 0 0 1.8-4.84C312.466 64.646 249.687 1.866 171.709.041zM37.371 140.423c1.507-13.331 12.482-23.587 25.884-24.189 15.051-.676 27.8 10.978 28.476 26.029v.36c0 1.004.204 1.997.6 2.92l51.04 138.6-106-143.72zm123.601 2.16a7.432 7.432 0 0 0 0 .92v145.56l-54.44-147.6c1.079-13.66 12.123-24.4 25.808-25.097 15.047-.766 27.866 10.81 28.632 25.857v.36zm7.36-22.88a41.919 41.919 0 0 0-10.897-10.887c-19.14-13.105-45.279-8.212-58.383 10.927-12.834-18.714-38.203-23.866-57.32-11.64 12.239-44.804 47.242-79.807 92.046-92.046 69.941-19.106 142.128 22.105 161.234 92.046a41.802 41.802 0 0 0-22.68-6.64 42.12 42.12 0 0 0-34.68 18.24 42.03 42.03 0 0 0-10.868-10.868c-19.143-13.14-45.313-8.274-58.452 10.868zm7.4 23.04c.355-14.032 11.301-25.505 25.301-26.518 15.027-1.088 28.091 10.211 29.179 25.238l-54.48 147.6v-146.32zm17.56 141.4l51.32-139a7.396 7.396 0 0 0 .44-2.8c.574-13.417 10.827-24.42 24.169-25.939 14.97-1.704 28.486 9.05 30.191 24.019l-106.12 143.72z" /><path d="M163.012 113.383l.028.029.012.011-.04-.04z" /></symbol><symbol viewBox="0 0 512 512" id="ic-pve"><path d="M24 304c-4.4 0-8 3.6-8 8v64c0 4.4 3.6 8 8 8h16v8c0 22.1 17.9 40 40 40h352c22.1 0 40-17.9 40-40v-8h16c.5 0 1.1-.1 1.6-.2 4.3-.9 7.1-5.1 6.2-9.4l-8-40c-4.8-18-21.2-30.5-39.8-30.4h-80v-40c0-4.4-3.6-8-8-8h-40v-28.2l170.8-60.3c.2-.1.3-.1.5-.2 4-1.8 5.9-6.5 4.1-10.6l-8.8-19.7 4.1-1.5c3.9-1.4 6.1-5.5 5.1-9.5l-8-32c-.1-.2-.1-.5-.2-.7-1.5-4.2-6-6.4-10.2-4.9l-183.7 63.9-8.8 2.3-5.1-20.6c-.5-2.1-1.9-3.9-3.7-5-1.8-1.1-4.1-1.4-6.1-.8l-120 32c-4.2 1.1-6.8 5.4-5.7 9.7l5.1 20.4-7.4 1.9c-1.4.4-2.6 1.1-3.6 2.1l-32 32c-2 2-2.8 4.9-2.1 7.6l5.5 22.1H88c-4.4 0-8 3.6-8 8v40H24zm245.4-145.3l-104.6 27.5-3.1-12.5 104.5-27.9 3.2 12.9zm68.1 30.4l133.8-46.8 5.9 13.2-135.6 50-4.1-16.4zm-8.1-14.1l-16.6-12.4 161.6-56.2 4.1 16.5L329.4 175zM309 213.8l-5.4-16.3c-1.1-3.3-4.1-5.5-7.6-5.5h-24c-.7 0-1.3.1-1.9.2l-64 16 3.9 15.5 63-15.8h17.2l3.1 9.3-167.5 37.2-5-20 27.3-27.3 146.2-38.5 26.6 20 5.3 21.3-17.2 3.9zm-5 17.5V256H192.9L304 231.3zm48 72.7H96v-32h256v32zm-192 16v16h-32v-16h32zm48 0v16h-32v-16h32zM56 384h8.7c1.6 16.8 15 30.2 31.8 31.8 19.5 1.9 36.8-12.3 38.7-31.8h1.5c3.2 15.7 15.5 28 31.2 31.2 21.6 4.4 42.8-9.6 47.2-31.2h1.6c3.2 15.7 15.5 28 31.2 31.2 21.6 4.4 42.8-9.6 47.2-31.2h1.6c3.2 15.7 15.5 28 31.2 31.2 21.6 4.4 42.8-9.6 47.2-31.2h1.5c2.5 17.8 17.3 31.2 35.3 32 17.9-.8 32.8-14.2 35.3-32h8.7v8c0 13.3-10.7 24-24 24H80c-13.3 0-24-10.7-24-24v-8zm356 16c-9.1-.6-16.8-7.1-18.9-16h37.7c-2 8.9-9.7 15.4-18.8 16zm-68-1.4c-12.5 4.4-26.2-2.1-30.6-14.6h45.3c-2.5 6.8-7.9 12.2-14.7 14.6zm-80 0c-12.5 4.4-26.2-2.1-30.6-14.6h45.3c-2.5 6.8-7.9 12.2-14.7 14.6zm-80 0c-12.5 4.4-26.2-2.1-30.6-14.6h45.3c-2.5 6.8-7.9 12.2-14.7 14.6zm-80.9 1.1c-10.4 1.7-20.3-5.3-22-15.7h37.7c-1.3 8.1-7.6 14.4-15.7 15.7zM32 320h16v32h16v-32h16v32h16v-32h16v24c0 4.4 3.6 8 8 8h96c4.4 0 8-3.6 8-8v-24h224c11.2-.2 21.1 7.2 24.2 17.9l6 30.1H32v-48z" /><path d="M456 352h-16v-16h16v16zM424 352h-16v-16h16v16zM392 352h-16v-16h16v16z" /></symbol><symbol viewBox="0 0 365.725 365.725" id="ic-pvp"><path d="M357.29 315.48c-.11-.111-.22-.222-.331-.331l-14.08-13.76-25.68-25.84-19.04-19.04 16.88-16.88a8 8 0 0 0 0-11.28l-18.24-18.24a8 8 0 0 0-11.28 0l-6.56 6.56-26.96-30.16 106.88-95.68a8.002 8.002 0 0 0 2.64-5.6l3.84-76.72a8 8 0 0 0-2.32-6.08 8 8 0 0 0-6.08-2.32l-76.72 3.76a8.002 8.002 0 0 0-5.6 2.64l-91.76 102.88L90.959 6.748a8.002 8.002 0 0 0-5.6-2.64L8.639.348a8 8 0 0 0-6.08 2.32 8 8 0 0 0-2.32 6.08l3.84 76.72a8.002 8.002 0 0 0 2.64 5.6l107.04 96-26.88 29.68-6.56-6.56a8 8 0 0 0-11.28 0l-18.24 18.24a8 8 0 0 0 0 11.28l16.88 16.88-19.12 18.96-40 40c-11.443 11.488-11.407 30.078.081 41.521a29.365 29.365 0 0 0 20.639 8.559 29.122 29.122 0 0 0 20.72-8.56l58.72-58.72 16.88 16.88a8 8 0 0 0 11.28 0l18.24-18.24a8 8 0 0 0 0-11.28l-6.24-6.96 34-30.32 34 30.32-6.56 6.56a8 8 0 0 0 0 11.28l18.24 18.24a8 8 0 0 0 11.28 0l16.88-16.88 19.04 19.04 25.76 25.76 13.92 13.92c11.374 11.557 29.963 11.705 41.52.331 11.557-11.373 11.705-29.963.331-41.519zm-89.851-87.452l-14.08 14.08-30.08-30.08 16.56-14.8 27.6 30.8zm-248-146.96l-3.2-64.56 64.56 3.2 90.88 101.6-18.56 20.72-33.6-33.6a8 8 0 0 0-11.28 11.28l34.64 34.32-18.4 20.72-105.04-93.68zm19.12 264a13.28 13.28 0 0 1-9.44 3.92c-7.358-.546-12.881-6.954-12.334-14.312a13.361 13.361 0 0 1 3.374-7.928l8-8 18.72 18.48-8.32 7.84zm19.52-19.52l-18.4-18.48 14.48-14.48 18.88 18.88-14.96 14.08zm25.84-25.84l-18.88-18.88 13.84-12.96 18.88 18.88-13.84 12.96zm47.2-2.16l-16.8-16.8-30.16-30.16-16.48-16.56 6.88-6.88 64 64-7.44 6.4zm6-30.48l-14.08-14.08 133.6-133.6a8 8 0 1 0-11.28-11.28l-133.6 133.6-14.08-14.08 32.8-36.64 154.08-171.2 64.56-3.2-3.2 64.56-110.56 98.8-98.24 87.12zm57.28-29.84l17.2-14.48 30.64 30.64-14.08 14.08-33.76-30.24zm56 43.44l-16.24 17.28-6.88-6.88 64-64 6.88 6.88-16.88 16.88-30.88 29.84zm16.96 5.68l19.52-18.48 13.36 13.36-18.88 18.88-14-13.76zm39.2 39.2l-14.48-14.48 18.88-18.88 14.48 14.48-18.88 18.88zm39.04 19.92l-.64-.4c-5.285 5.039-13.595 5.039-18.88 0l-8-8 19.28-18.32 8 8c5.17 5.131 5.276 13.458.24 18.72z" /></symbol><symbol viewBox="0 0 512 512" id="ic-tank"><circle cx="376" cy="436" r="10" /><circle cx="296" cy="436" r="10" /><circle cx="216" cy="436" r="10" /><circle cx="136" cy="436" r="10" /><path d="M502 186c-5.522 0-10 4.478-10 10v10H346v-10c0-5.522-4.478-10-10-10h-70v-10c0-16.542-13.458-30-30-30h-50v-20h110a10.001 10.001 0 0 0 7.071-17.071L270.143 76l32.929-32.929A10.002 10.002 0 0 0 296 26H176c-5.522 0-10 4.478-10 10v110h-10c-16.542 0-30 13.458-30 30v10H96c-16.542 0-30 13.458-30 30v40c0 3.506.61 6.87 1.72 10H30c-16.542 0-30 13.458-30 30v80c0 8.47 3.556 16.834 10.526 22.812.037.031.069.066.107.096l92.93 75.138.037.028A50.03 50.03 0 0 0 136 486c16.339 0 30.87-7.878 40-20.035C185.13 478.122 199.661 486 216 486s30.87-7.878 40-20.035C265.13 478.122 279.661 486 296 486s30.87-7.878 40-20.035C345.13 478.122 359.661 486 376 486a50.032 50.032 0 0 0 32.401-11.927l.036-.027c.1-.081 92.953-75.149 93.169-75.338A29.977 29.977 0 0 0 512 376v-40c0-16.542-13.458-30-30-30H346v-40h156c5.522 0 10-4.478 10-10v-60c0-5.522-4.478-10-10-10zM186 46h85.857l-22.929 22.929c-3.905 3.905-3.905 10.237 0 14.143L271.857 106H186zm-40 130c0-5.514 4.486-10 10-10h80c5.514 0 10 4.486 10 10v10H146zM40 376c0 5.514-4.486 10-10 10-5.622 0-10-4.581-10-10 0-5.514 4.486-10 10-10s10 4.486 10 10zm96 90c-16.562 0-30-13.432-30-30 0-16.542 13.458-30 30-30s30 13.458 30 30-13.458 30-30 30zm80 0c-16.542 0-30-13.458-30-30s13.458-30 30-30 30 13.458 30 30-13.458 30-30 30zm80 0c-16.542 0-30-13.458-30-30s13.458-30 30-30 30 13.458 30 30-13.458 30-30 30zm50-30c0-16.542 13.458-30 30-30s30 13.458 30 30c0 16.596-13.468 30-30 30-16.542 0-30-13.458-30-30zm136-50c-5.514 0-10-4.486-10-10s4.486-10 10-10 10 4.486 10 10c0 5.337-4.318 10-10 10zm10-50v11.72a29.857 29.857 0 0 0-10-1.72H301c-5.522 0-10 4.478-10 10s4.478 10 10 9.99h152.72A29.96 29.96 0 0 0 452 376c0 10.787 5.725 20.259 14.294 25.547l-40.341 32.617C424.982 407.442 402.955 386 376 386c-16.339 0-30.87 7.878-40 20.035C326.87 393.878 312.339 386 296 386s-30.87 7.878-40 20.035C246.87 393.878 232.339 386 216 386s-30.87 7.878-40 20.035C166.87 393.878 152.339 386 136 386c-26.955 0-48.983 21.443-49.953 48.165l-40.342-32.617C54.274 396.26 60 386.787 60 376c0-3.506-.61-6.87-1.72-10H211c5.522 0 10-4.478 10-10s-4.478-10-10-10H30c-3.506 0-6.87.61-10 1.72V296c0-5.514 4.486-10 10-10h103.64l77.889 38.944a10 10 0 0 0 4.472 1.056h266c5.513 0 9.999 4.486 9.999 10zm-273.64-30l-77.889-38.944A10.343 10.343 0 0 0 136 266H96c-5.514 0-10-4.486-10-10v-40c0-5.514 4.486-10 10-10h230v100zM492 246H346v-20h146z" /><path d="M216 226c-5.522 0-10 4.478-10 10v40c0 5.522 4.478 10 10 10s10-4.478 10-10v-40c0-5.522-4.478-10-10-10zM256 226c-5.522 0-10 4.478-10 10v40c0 5.522 4.478 10 10 10s10-4.478 10-10v-40c0-5.522-4.478-10-10-10zM296 226c-5.522 0-10 4.478-10 10v40c0 5.522 4.478 10 10 10s10-4.478 10-10v-40c0-5.522-4.478-10-10-10z" /><circle cx="256" cy="356" r="10" /></symbol><symbol viewBox="0 0 512 512" id="ic-technology"><path d="M246 206v-40c0-5.523-4.478-10-10-10-5.523 0-10 4.477-10 10v40c0 5.523 4.477 10 10 10 5.522 0 10-4.477 10-10zM286 206v-60c0-5.523-4.478-10-10-10s-10 4.477-10 10v60c0 5.523 4.478 10 10 10s10-4.477 10-10zM0 206s.062 120.247.067 120.368c1.489 40.488 28.322 76.303 66.771 89.119a9.999 9.999 0 0 0 6.324 0c38.449-12.816 65.272-48.631 66.761-89.116.123-3.304.054 2.984.077-120.371 0-5.523-4.477-10-10-10H93.793l23.224-22.875A10 10 0 1 0 110 156H30a10 10 0 0 0-7.125 17.017L45.508 196H10c-5.523 0-10 4.477-10 10zm85.597-30l-16.099 15.857L53.882 176zM70 395.382c-25.622-9.805-44.18-32.65-48.844-59.392h97.688c-4.663 26.741-23.222 49.587-48.844 59.392zM120 216v100H20V216zM40 86v40c0 5.523 4.477 10 10 10s10-4.477 10-10V86c0-5.523-4.477-10-10-10s-10 4.477-10 10zM80 66v60c0 5.523 4.477 10 10 10s10-4.477 10-10V66c0-5.523-4.477-10-10-10s-10 4.477-10 10zM502 156h-36.207l23.225-22.875A10 10 0 0 0 482 116h-80a10.001 10.001 0 0 0-7.125 17.017L417.508 156H382c-5.522 0-10 4.477-10 10l.06 120v.003c1.38 41.226 28.739 76.804 66.778 89.484a9.999 9.999 0 0 0 6.324 0c38.135-12.712 65.403-48.361 66.778-89.484V286l.06-120c0-5.523-4.478-10-10-10zm-44.403-20l-16.1 15.857L425.882 136zM492 176v100H392V176zm-50 179.382c-25.621-9.805-44.18-32.65-48.844-59.392h97.688c-4.663 26.741-23.222 49.587-48.844 59.392zM412 46v40c0 5.523 4.478 10 10 10s10-4.477 10-10V46c0-5.523-4.478-10-10-10s-10 4.477-10 10z" /><circle cx="316" cy="356" r="10" /><path d="M186 286v116.75c0 41.518 26.33 79.244 66.84 92.737a9.986 9.986 0 0 0 6.32 0C328.611 472.353 325.967 401.1 326 401c0-5.523-4.478-10-10-10s-10 4.477-10 10c-.036 1 .237 7.04-1.136 15h-97.728A77.996 77.996 0 0 1 206 402.75V296h100v15c0 5.523 4.478 10 10 10s10-4.477 10-10v-25c0-5.523-4.478-10-10-10h-36.207l23.225-22.875A10 10 0 0 0 296 236h-80a10 10 0 0 0-7.125 17.017L231.508 276H196c-5.523 0-10 4.477-10 10zm85.597-30l-16.1 15.857L239.882 256zM256 475.384a77.543 77.543 0 0 1-42.548-39.394h85.077c-8.491 18.034-23.643 32.192-42.529 39.394zM452 26v60c0 5.523 4.478 10 10 10s10-4.477 10-10V26c0-5.523-4.478-10-10-10s-10 4.477-10 10z" /></symbol></defs></svg>